<?xml version="1.0" encoding="UTF-8"?>
<svg width="120px" height="40px" viewBox="0 0 120 40" version="1.1" xmlns="http://www.w3.org/2000/svg" xmlns:xlink="http://www.w3.org/1999/xlink">
    <!-- Generator: Sketch 48.2 (47327) - http://www.bohemiancoding.com/sketch -->
    <title>uxify</title>
    <desc>Created with Sketch.</desc>
    <defs></defs>
    <g id="Page-1" stroke="none" stroke-width="1" fill="none" fill-rule="evenodd">
        <g id="uxify">
            <rect id="Rectangle" fill="#1EC3F8" x="0" y="0" width="128" height="40"></rect>
            <path d="M19.746,29.893 C20.6980048,29.893 21.5484963,29.7355016 22.2975,29.4205 C23.0465037,29.1054984 23.6799974,28.6540029 24.198,28.066 C24.7160026,27.4779971 25.1114986,26.7605042 25.3845,25.9135 C25.6575014,25.0664958 25.794,24.1040054 25.794,23.026 L25.794,4.903 L32.892,4.903 L32.892,23.026 C32.892,24.9020094 32.587503,26.6239922 31.9785,28.192 C31.369497,29.7600078 30.4980057,31.1109943 29.364,32.245 C28.2299943,33.3790057 26.8510081,34.2609968 25.227,34.891 C23.6029919,35.5210031 21.7760102,35.836 19.746,35.836 C17.7019898,35.836 15.8680081,35.5210031 14.244,34.891 C12.6199919,34.2609968 11.2410057,33.3790057 10.107,32.245 C8.97299433,31.1109943 8.10500301,29.7600078 7.503,28.192 C6.90099699,26.6239922 6.6,24.9020094 6.6,23.026 L6.6,4.903 L13.698,4.903 L13.698,23.005 C13.698,24.0830054 13.8344986,25.0454958 14.1075,25.8925 C14.3805014,26.7395042 14.7759974,27.460497 15.294,28.0555 C15.8120026,28.650503 16.4454963,29.1054984 17.1945,29.4205 C17.9435037,29.7355016 18.7939952,29.893 19.746,29.893 Z M42.9404992,19.771 L33.4694992,4.903 L40.5674992,4.903 C41.0295015,4.903 41.3689981,4.96249941 41.5859992,5.0815 C41.8030003,5.20050059 41.9954983,5.3999986 42.1634992,5.68 L48.2534992,15.991 C48.3234995,15.8089991 48.4039987,15.6340008 48.4949992,15.466 C48.5859996,15.2979992 48.6874986,15.1230009 48.7994992,14.941 L54.1334992,5.785 C54.4835009,5.19699706 54.9594962,4.903 55.5614992,4.903 L62.3654992,4.903 L52.7684992,19.456 L62.5754992,35.5 L55.4774992,35.5 C55.0154969,35.5 54.6410006,35.3880011 54.3539992,35.164 C54.0669978,34.9399989 53.8395,34.6740015 53.6714992,34.366 L47.5394992,23.656 C47.4274986,23.9640015 47.3014999,24.2299989 47.1614992,24.454 L41.4494992,34.366 C41.2814983,34.6600015 41.0575006,34.9224988 40.7774992,35.1535 C40.4974978,35.3845012 40.1475013,35.5 39.7274992,35.5 L33.0914992,35.5 L42.9404992,19.771 Z M68.0249984,35.5 L65.8619984,35.5 L65.8619984,5.785 L68.0249984,5.785 L68.0249984,35.5 Z M93.289022,5.785 L93.289022,7.57 L77.644022,7.57 L77.644022,20.065 L91.189022,20.065 L91.189022,21.85 L77.644022,21.85 L77.644022,35.5 L75.481022,35.5 L75.481022,5.785 L93.289022,5.785 Z M106.604046,23.236 L106.604046,35.5 L104.441046,35.5 L104.441046,23.236 L93.4580457,5.785 L95.3270457,5.785 C95.5230467,5.785 95.6805451,5.83049954 95.7995457,5.9215 C95.9185463,6.01250045 96.0340451,6.14199916 96.1460457,6.31 L104.651046,19.96 C104.847047,20.2820016 105.015045,20.5934985 105.155046,20.8945 C105.295046,21.1955015 105.421045,21.4999985 105.533046,21.808 C105.645046,21.4999985 105.771045,21.1955015 105.911046,20.8945 C106.051046,20.5934985 106.219045,20.2820016 106.415046,19.96 L114.899046,6.31 C114.983046,6.15599923 115.088045,6.03000049 115.214046,5.932 C115.340046,5.83399951 115.501045,5.785 115.697046,5.785 L117.587046,5.785 L106.604046,23.236 Z" id="UXIFY" fill="#FFFFFF"></path>
        </g>
    </g>
</svg>