<?xml version="1.0" encoding="UTF-8"?>
<svg width="256px" height="256px" viewBox="0 0 256 256" version="1.1" xmlns="http://www.w3.org/2000/svg" xmlns:xlink="http://www.w3.org/1999/xlink">
    <!-- Generator: Sketch 48.2 (47327) - http://www.bohemiancoding.com/sketch -->
    <title>uxify_icon</title>
    <desc>Created with Sketch.</desc>
    <defs></defs>
    <g id="Page-1" stroke="none" stroke-width="1" fill="none" fill-rule="evenodd">
        <g id="uxify_icon">
            <rect id="Rectangle" fill="#1EC3F8" x="0" y="0" width="256" height="256"></rect>
            <path d="M56.9576636,140.196684 C61.0824138,140.196684 64.7673376,139.514291 68.0125455,138.149484 C71.2577535,136.784677 74.0024909,134.828482 76.2468403,132.280843 C78.4911898,129.733203 80.2047551,126.624522 81.3875879,122.954708 C82.5704207,119.284893 83.1618283,115.114712 83.1618283,110.444039 L83.1618283,31.9225313 L113.915327,31.9225313 L113.915327,110.444039 C113.915327,118.572223 112.596033,126.033056 109.957406,132.826763 C107.318779,139.620469 103.54287,145.473887 98.6295644,150.387193 C93.7162589,155.300498 87.7415265,159.1219 80.7051878,161.851515 C73.6688491,164.581129 65.7530869,165.945915 56.9576636,165.945915 C48.1015821,165.945915 40.1554913,164.581129 33.1191526,161.851515 C26.0828139,159.1219 20.1080815,155.300498 15.1947761,150.387193 C10.2814706,145.473887 6.52072532,139.620469 3.91242737,132.826763 C1.30412941,126.033056 0,118.572223 0,110.444039 L0,31.9225313 L30.7534989,31.9225313 L30.7534989,110.353052 C30.7534989,115.023725 31.3449064,119.193906 32.5277392,122.863721 C33.710572,126.533535 35.4241374,129.65738 37.6684868,132.235349 C39.9128362,134.813318 42.6575737,136.784677 45.9027816,138.149484 C49.1479895,139.514291 52.8329133,140.196684 56.9576636,140.196684 Z M157.452451,96.3411028 L116.417457,31.9225313 L147.170956,31.9225313 C149.172673,31.9225313 150.64361,32.1803243 151.58381,32.6959181 C152.524011,33.2115118 153.358047,34.0758767 154.085944,35.2890385 L180.472082,79.9634999 C180.775373,79.1749447 181.124151,78.4167299 181.518429,77.6888328 C181.912707,76.9609357 182.352471,76.2027209 182.837736,75.4141657 L205.948353,35.7439719 C207.464806,33.1963321 209.52715,31.9225313 212.135448,31.9225313 L241.615133,31.9225313 L200.034219,94.9763026 L242.525,164.490128 L211.771501,164.490128 C209.769784,164.490128 208.147204,164.004871 206.903714,163.034341 C205.660223,162.063812 204.674544,160.911326 203.946646,159.576847 L177.378535,113.173639 C176.89327,114.508117 176.347356,115.660604 175.740775,116.631133 L150.992397,159.576847 C150.2645,160.850667 149.293985,161.98799 148.080823,162.988848 C146.867661,163.989707 145.351232,164.490128 143.531489,164.490128 L114.779697,164.490128 L157.452451,96.3411028 Z" id="UXIFY" fill="#FFFFFF"></path>
        </g>
    </g>
</svg>