<?xml version="1.0" encoding="UTF-8"?>
<svg width="32px" height="32px" viewBox="0 0 32 32" version="1.1" xmlns="http://www.w3.org/2000/svg" xmlns:xlink="http://www.w3.org/1999/xlink">
    <!-- Generator: Sketch 47.1 (45422) - http://www.bohemiancoding.com/sketch -->
    <title>copy</title>
    <desc>Created with Sketch.</desc>
    <defs></defs>
    <g id="Page-1" stroke="none" stroke-width="1" fill="none" fill-rule="evenodd">
        <g id="copy" fill="#A4AEB5">
            <path d="M23.402,24.342 L23.402,11.494 L13.348,11.494 L13.348,24.342 L23.402,24.342 Z M23.402,9.69 C23.9006692,9.69 24.3333315,9.86599824 24.7,10.218 C25.0666685,10.5700018 25.25,10.9953308 25.25,11.494 L25.25,24.342 C25.25,24.8406692 25.0666685,25.2733315 24.7,25.64 C24.3333315,26.0066685 23.9006692,26.19 23.402,26.19 L13.348,26.19 C12.8493308,26.19 12.4166685,26.0066685 12.05,25.64 C11.6833315,25.2733315 11.5,24.8406692 11.5,24.342 L11.5,11.494 C11.5,10.9953308 11.6833315,10.5700018 12.05,10.218 C12.4166685,9.86599824 12.8493308,9.69 13.348,9.69 L23.402,9.69 Z M20.652,5.994 L20.652,7.842 L9.652,7.842 L9.652,20.69 L7.848,20.69 L7.848,7.842 C7.848,7.34333084 8.02399824,6.9106685 8.376,6.544 C8.72800176,6.1773315 9.15333084,5.994 9.652,5.994 L20.652,5.994 Z" id="content_copy---material"></path>
        </g>
    </g>
</svg>