<?xml version="1.0" encoding="UTF-8"?>
<svg width="32px" height="32px" viewBox="0 0 32 32" version="1.1" xmlns="http://www.w3.org/2000/svg" xmlns:xlink="http://www.w3.org/1999/xlink">
    <!-- Generator: Sketch 41.2 (35397) - http://www.bohemiancoding.com/sketch -->
    <title>group</title>
    <desc>Created with Sketch.</desc>
    <defs></defs>
    <g id="Page-1" stroke="none" stroke-width="1" fill="none" fill-rule="evenodd">
        <g id="group" fill="#000000">
            <path d="M22.8955821,25.4293503 L17.0140298,22.1813288 C18.1064629,21.3034808 18.8428688,20.1525418 19.2232696,18.7284772 C19.6036704,17.3044126 19.7938679,16.1144587 19.7938679,15.1585797 L19.7938679,11.2082834 C19.7938679,10.5450204 19.5939167,9.88664426 19.1940081,9.23313517 C18.7940996,8.57962609 18.2673987,7.98952599 17.6138896,7.46281717 C16.9603805,6.93610836 16.2142209,6.50694465 15.3753883,6.17531317 C14.5365557,5.8436817 13.6782283,5.67786845 12.8003803,5.67786845 C11.94204,5.67786845 11.0885895,5.8436817 10.240003,6.17531317 C9.39141661,6.50694465 8.63550326,6.93610836 7.9722403,7.46281717 C7.30897735,7.98952599 6.77252272,8.57962609 6.3628603,9.23313517 C5.95319789,9.88664426 5.74836976,10.5450204 5.74836976,11.2082834 L5.74836976,15.1585797 C5.74836976,16.01692 5.96295161,17.1776128 6.39212176,18.6406928 C6.8212919,20.1037729 7.59183584,21.2742193 8.70377667,22.1520674 L2.64665558,25.4293503 L1.8565963,25.8975335 C1.32988749,26.2096573 1.06653703,26.5802987 1.06653703,27.0094688 L1.06653703,29.3796466 C1.06653703,29.8283245 1.22259656,30.2038428 1.5347203,30.5062126 C1.84684404,30.8085825 2.21748543,30.9597652 2.64665558,30.9597652 L22.8955821,30.9597652 C23.3247523,30.9597652 23.6953937,30.8085825 24.0075174,30.5062126 C24.3196411,30.2038428 24.4757007,29.8283245 24.4757007,29.3796466 L24.4757007,27.0094688 C24.4757007,26.5412832 24.2123502,26.1608881 23.6856414,25.8682721 L22.8955821,25.4293503 Z M22.6029676,29.0870321 L2.93927012,29.0870321 L2.93927012,27.4191292 L3.15873103,27.2728219 C3.24651583,27.2142987 3.32942246,27.1752838 3.40745339,27.1557761 C3.42696113,27.1362684 3.44646857,27.1216378 3.4659763,27.1118839 C3.48548404,27.10213 3.50499148,27.0972532 3.52449921,27.0972532 L9.5816203,23.7907088 C9.85472858,23.6541547 10.0790642,23.4542034 10.2546338,23.190849 C10.4302034,22.9274946 10.5277406,22.6397598 10.5472483,22.3276361 C10.5862638,22.0155123 10.542372,21.713147 10.4155718,21.420531 C10.2887715,21.127915 10.1083277,20.884072 9.87423485,20.6889946 C9.07441776,20.0647471 8.49894824,19.1722817 8.14780903,18.0115715 C7.79666982,16.8508614 7.62110285,15.8998736 7.62110285,15.1585797 L7.62110285,11.2082834 C7.62110285,10.5255127 8.15268062,9.74521502 9.21585212,8.86736699 C10.2790236,7.98951897 11.4738544,7.55060154 12.8003803,7.55060154 C14.1659217,7.55060154 15.3607525,7.98951897 16.3849085,8.86736699 C17.4090645,9.74521502 17.9211349,10.5255127 17.9211349,11.2082834 L17.9211349,15.1585797 C17.9211349,15.8998736 17.774829,16.8508614 17.482213,18.0115715 C17.189597,19.1722817 16.6433887,20.0647471 15.8435716,20.6889946 C15.589971,20.884072 15.3997735,21.127915 15.2729732,21.420531 C15.1461729,21.713147 15.1022812,22.0155123 15.1412967,22.3276361 C15.1608044,22.6397598 15.2583416,22.9274946 15.4339112,23.190849 C15.6094808,23.4542034 15.8338164,23.6639084 16.1069247,23.8199703 L21.988477,27.0679917 C22.0274925,27.0874995 22.0616305,27.1070069 22.0908921,27.1265146 C22.1201537,27.1460224 22.144538,27.1557761 22.1640458,27.1557761 L22.3981374,27.2728219 C22.4761683,27.3118374 22.5444444,27.360606 22.6029676,27.4191292 L22.6029676,29.0870321 Z M29.4501479,20.776779 L23.4808112,17.4994961 C24.5732443,16.6411558 25.3242808,15.4950936 25.7339432,14.0612752 C26.1436056,12.6274567 26.3484338,11.4423797 26.3484338,10.5060084 L26.3484338,6.55571208 C26.3484338,5.89244913 26.1436056,5.22919613 25.7339432,4.56593317 C25.3242808,3.90267022 24.7878262,3.30769326 24.1245632,2.78098444 C23.4613003,2.25427563 22.7053869,1.82023506 21.8568005,1.47884972 C21.0082141,1.13746437 20.1450098,0.966774262 19.2671618,0.966774262 C18.1357132,0.966774262 17.0335428,1.23987844 15.9606174,1.78609499 C14.887692,2.33231154 14.0098572,3.00531826 13.3270865,3.80513535 C13.7172412,3.82464309 14.1171437,3.84415053 14.5268061,3.86365826 C14.9364685,3.883166 15.3266174,3.95144204 15.6972643,4.06848844 C16.1849577,3.6978415 16.7360429,3.40522988 17.3505365,3.19064481 C17.9650301,2.97605974 18.6038988,2.86876881 19.2671618,2.86876881 C20.6327031,2.86876881 21.8421645,3.30768624 22.8955821,4.18553426 C23.9489998,5.06338229 24.4757007,5.85343366 24.4757007,6.55571208 L24.4757007,10.5060084 C24.4757007,11.2277946 24.3147643,12.1690286 23.9928867,13.3297388 C23.6710091,14.490449 23.1101701,15.3926681 22.310353,16.0364234 C22.0567525,16.2315007 21.8665549,16.4753437 21.7397547,16.7679597 C21.6129544,17.0605757 21.5690627,17.3629411 21.6080781,17.6750648 C21.6275859,17.9871886 21.7251231,18.2749233 21.9006927,18.5382777 C22.0762623,18.8016321 22.3005979,19.0113371 22.5737061,19.167399 L28.5430429,22.4154205 C28.5820583,22.4349282 28.6161963,22.4495588 28.6454579,22.4593126 C28.6747195,22.4690665 28.6991038,22.4836971 28.7186116,22.5032048 C28.7966425,22.5227125 28.8746723,22.5568506 28.9527032,22.6056199 C29.0307342,22.6543892 29.0990102,22.698281 29.1575334,22.7372965 L29.1575334,24.4051994 L25.3828058,24.4051994 C25.655914,24.6197844 25.8558653,24.8831349 25.9826656,25.1952586 C26.1094659,25.5073824 26.2313874,25.86827 26.3484338,26.2779325 L29.4501479,26.2779325 C29.8793181,26.2779325 30.2499595,26.1267498 30.5620832,25.8243799 C30.874207,25.52201 31.0302665,25.1464918 31.0302665,24.6978139 L31.0302665,22.3568975 C31.0302665,21.8887119 30.766916,21.5083168 30.2402072,21.2157008 L29.4501479,20.776779 Z" id="Icon"></path>
        </g>
    </g>
</svg>