<svg xmlns="http://www.w3.org/2000/svg" xmlns:xlink="http://www.w3.org/1999/xlink" width="32" height="64" viewBox="0 0 32 64"><svg width="32" height="32" viewBox="0 0 32 32" id="copy" y="0"><title>copy</title><path d="M23.402 24.342V11.494H13.348v12.848h10.054zm0-14.652c.499 0 .931.176 1.298.528.367.352.55.777.55 1.276v12.848c0 .499-.183.931-.55 1.298-.367.367-.8.55-1.298.55H13.348c-.499 0-.931-.183-1.298-.55-.367-.367-.55-.8-.55-1.298V11.494c0-.499.183-.924.55-1.276.367-.352.8-.528 1.298-.528h10.054zm-2.75-3.696v1.848h-11V20.69H7.848V7.842c0-.499.176-.931.528-1.298.352-.367.777-.55 1.276-.55h11z" fill="#A4AEB5" fill-rule="evenodd"></path></svg><svg width="32" height="32" viewBox="0 0 32 32" id="group" y="32"><title>group</title><path d="M22.896 25.43l-5.882-3.249c1.092-.878 1.829-2.028 2.21-3.453.38-1.424.57-2.614.57-3.57v-3.95c0-.663-.2-1.321-.6-1.975a6.907 6.907 0 0 0-1.58-1.77 8.547 8.547 0 0 0-2.239-1.288 6.947 6.947 0 0 0-2.575-.497c-.858 0-1.711.166-2.56.497a8.726 8.726 0 0 0-2.268 1.288 7.038 7.038 0 0 0-1.61 1.77c-.409.654-.614 1.312-.614 1.975v3.95c0 .859.215 2.02.644 3.483.43 1.463 1.2 2.633 2.312 3.511L2.647 25.43l-.79.469c-.527.312-.79.682-.79 1.111v2.37c0 .45.156.825.468 1.127.312.303.682.454 1.112.454h20.249c.429 0 .8-.151 1.112-.454.312-.302.468-.678.468-1.126v-2.37c0-.469-.264-.85-.79-1.142l-.79-.439zm-.293 3.657H2.939v-1.668l.22-.146a.81.81 0 0 1 .248-.117.23.23 0 0 1 .059-.044.13.13 0 0 1 .058-.015l6.058-3.306c.273-.137.497-.337.673-.6.175-.264.273-.551.292-.863a1.71 1.71 0 0 0-.131-.907 1.94 1.94 0 0 0-.542-.732c-.8-.624-1.375-1.517-1.726-2.677-.351-1.161-.527-2.112-.527-2.853v-3.95c0-.683.532-1.464 1.595-2.342 1.063-.877 2.258-1.316 3.584-1.316 1.366 0 2.56.439 3.585 1.316 1.024.878 1.536 1.659 1.536 2.341v3.95c0 .742-.146 1.693-.439 2.854-.292 1.16-.839 2.053-1.638 2.677a1.823 1.823 0 0 0-.571.732 1.71 1.71 0 0 0-.132.907c.02.312.117.6.293.863.175.263.4.473.673.629l5.881 3.248c.04.02.074.039.103.059.03.019.054.029.073.029l.234.117a.781.781 0 0 1 .205.146v1.668zm6.847-8.31l-5.97-3.278c1.093-.858 1.844-2.004 2.254-3.438.41-1.434.614-2.619.614-3.555v-3.95c0-.664-.204-1.327-.614-1.99a6.93 6.93 0 0 0-1.61-1.785 9.054 9.054 0 0 0-2.267-1.302 6.883 6.883 0 0 0-2.59-.512c-1.131 0-2.233.273-3.306.82-1.073.545-1.951 1.218-2.634 2.018.39.02.79.04 1.2.059.41.02.8.087 1.17.204a5.955 5.955 0 0 1 1.654-.877 5.772 5.772 0 0 1 1.916-.322c1.366 0 2.575.439 3.629 1.317 1.053.877 1.58 1.667 1.58 2.37v3.95c0 .722-.161 1.663-.483 2.824-.322 1.16-.883 2.063-1.683 2.706a1.823 1.823 0 0 0-.57.732 1.71 1.71 0 0 0-.132.907c.02.312.117.6.293.863.175.264.4.473.673.63l5.969 3.247c.04.02.073.035.102.044.03.01.054.025.074.044.078.02.156.054.234.103.078.048.146.092.205.131v1.668h-3.775c.273.215.473.478.6.79.126.312.248.673.365 1.083h3.102c.43 0 .8-.151 1.112-.454.312-.302.468-.678.468-1.126v-2.341c0-.468-.263-.849-.79-1.141l-.79-.44z" fill="#000" fill-rule="evenodd"></path></svg></svg>